Coordinates
version=1
nRows=65
nColumns=12
inDegrees=yes

Units are S.I. units (second, meters, Newtons, ...)
Angles are in degrees

endheader
time	SC_y	SC_z	SC_x	AC_y	AC_z	AC_x	GH_y	GH_z	GH_yy	EL_x	PS_y
       0.0              -25.22          35.61           20.6          36.06          8.486          18.86         -106.0          62.87         -167.9          100.9           64.2
   0.02124              -25.23          35.61          20.61          36.06          8.483          18.86         -106.0          62.86         -167.9          100.9          64.19
   0.04249              -25.23          35.61          20.61          36.07          8.481          18.86         -106.0          62.85         -167.9          100.9          64.19
   0.06373              -25.24           35.6          20.61          36.07          8.478          18.86         -105.9          62.84         -167.8          100.9          64.18
   0.08497              -25.25           35.6          20.62          36.07          8.475          18.86         -105.9          62.83         -167.8          100.8          64.18
    0.1062              -25.25          35.59          20.62          36.08          8.472          18.85         -105.9          62.82         -167.8          100.8          64.17
    0.1275              -25.26          35.59          20.63          36.08          8.469          18.85         -105.9          62.81         -167.8          100.8          64.17
    0.1487              -25.27          35.59          20.63          36.08          8.466          18.85         -105.8           62.8         -167.7          100.8          64.16
    0.1699              -25.27          35.58          20.64          36.09          8.462          18.85         -105.8          62.78         -167.7          100.8          64.16
    0.1912              -25.28          35.58          20.64          36.09          8.458          18.84         -105.7          62.77         -167.7          100.7          64.15
    0.2124              -25.29          35.57          20.65           36.1          8.454          18.84         -105.7          62.75         -167.7          100.7          64.14
    0.2337               -25.3          35.56          20.66           36.1          8.449          18.84         -105.6          62.74         -167.6          100.7          64.13
    0.2549              -25.31          35.56          20.66          36.11          8.444          18.83         -105.6          62.72         -167.6          100.7          64.13
    0.2762              -25.32          35.55          20.67          36.11          8.439          18.83         -105.5           62.7         -167.6          100.6          64.12
    0.2974              -25.33          35.54          20.68          36.12          8.433          18.83         -105.5          62.68         -167.5          100.6          64.11
    0.3186              -25.34          35.53          20.69          36.13          8.427          18.82         -105.4          62.66         -167.5          100.6           64.1
    0.3399              -25.36          35.53           20.7          36.13           8.42          18.82         -105.3          62.63         -167.4          100.5          64.09
    0.3611              -25.37          35.52          20.71          36.14          8.413          18.81         -105.2          62.61         -167.4          100.5          64.07
    0.3824              -25.39          35.51          20.72          36.15          8.405          18.81         -105.2          62.58         -167.3          100.5          64.06
    0.4036              -25.41          35.49          20.73          36.16          8.396           18.8         -105.1          62.54         -167.3          100.4          64.04
    0.4249              -25.43          35.48          20.75          36.17          8.386          18.79         -105.0          62.51         -167.2          100.4          64.03
    0.4461              -25.45          35.47          20.76          36.18          8.375          18.79         -104.9          62.47         -167.1          100.3          64.01
    0.4673              -25.47          35.45          20.78          36.19          8.363          18.78         -104.7          62.43         -167.0          100.2          63.99
    0.4886               -25.5          35.43           20.8          36.21           8.35          18.77         -104.6          62.38         -166.9          100.2          63.97
    0.5098              -25.53          35.42          20.82          36.22          8.336          18.76         -104.4          62.33         -166.8          100.1          63.94
    0.5311              -25.56          35.39          20.85          36.24          8.319          18.75         -104.3          62.27         -166.7          100.0          63.91
    0.5523              -25.59          35.37          20.87          36.26          8.301          18.74         -104.1           62.2         -166.6           99.9          63.88
    0.5736              -25.64          35.34           20.9          36.28          8.281          18.72         -103.8          62.13         -166.4          99.79          63.85
    0.5948              -25.68          35.31          20.94          36.31          8.258          18.71         -103.6          62.05         -166.3          99.67          63.81
    0.6161              -25.74          35.28          20.97          36.34          8.231          18.69         -103.3          61.95         -166.1          99.53          63.76
    0.6373               -25.8          35.24          21.02          36.37          8.201          18.67         -103.0          61.84         -165.9          99.36          63.71
    0.6585              -25.86          35.19          21.07           36.4          8.167          18.64         -102.6          61.72         -165.6          99.18          63.65
    0.6798              -25.94          35.14          21.12          36.45          8.127          18.62         -102.2          61.58         -165.3          98.97          63.59
     0.701              -26.04          35.08          21.19           36.5          8.081          18.58         -101.7          61.41         -165.0          98.72          63.51
    0.7223              -26.15          35.01          21.27          36.55          8.027          18.55         -101.1          61.22         -164.6          98.43          63.42
    0.7435              -26.27          34.93          21.36          36.62          7.963           18.5         -100.5          60.99         -164.2          98.08          63.31
    0.7648              -26.43          34.83          21.47           36.7          7.887          18.45         -99.65          60.71         -163.6          97.68          63.18
     0.786              -26.61          34.71           21.6           36.8          7.796          18.39         -98.68          60.39         -163.0          97.19          63.02
    0.8072              -26.83          34.57          21.76          36.92          7.686          18.31         -97.51          59.99         -162.2           96.6          62.84
    0.8285               -27.1          34.39          21.96          37.06          7.552          18.22         -96.07          59.51         -161.3          95.87          62.61
    0.8497              -27.43          34.17           22.2          37.24          7.386          18.11         -94.31          58.91         -160.1          94.98          62.33
     0.871              -27.84           33.9           22.5          37.46           7.18          17.96         -92.11          58.17         -158.6          93.87          61.97
    0.8922              -28.37          33.56          22.88          37.74           6.92          17.78         -89.33          57.23         -156.8          92.47          61.53
    0.9135              -29.03          33.13          23.36          38.09          6.589          17.56          -85.8          56.04         -154.4          90.69          60.97
    0.9347              -29.88          32.58          23.97          38.55          6.165          17.26         -81.29          54.51         -151.4          88.41          60.25
    0.9559              -30.97          31.86          24.76          39.13          5.622          16.89         -75.49          52.56         -147.6          85.49          59.32
    0.9772              -32.36          30.96          25.77          39.87          4.927          16.41         -68.09          50.06         -142.7          81.76          58.14
    0.9984              -34.11          29.81          27.03          40.81          4.055          15.81         -58.79          46.92         -136.5          77.06          56.65
      1.02              -36.24          28.42          28.58          41.95          2.991          15.08         -47.45          43.09         -129.0          71.34          54.84
     1.041              -38.71          26.81          30.36          43.27          1.758          14.23          -34.3          38.65         -120.2          64.71          52.74
     1.062              -41.39          25.06           32.3           44.7         0.4228          13.31         -20.07          33.84         -110.8          57.53          50.47
     1.083              -44.07          23.32          34.24          46.13        -0.9122          12.39         -5.838          29.03         -101.3          50.35           48.2
     1.105              -46.54           21.7          36.03          47.45         -2.145          11.54          7.307           24.6         -92.55          43.72           46.1
     1.126              -48.67          20.31          37.57          48.59         -3.209           10.8          18.65          20.77         -85.02           38.0          44.28
     1.147              -50.42          19.17          38.83          49.53         -4.082           10.2          27.95          17.62         -78.83          33.31           42.8
     1.168              -51.81          18.26          39.84          50.27         -4.776          9.722          35.35          15.12         -73.91          29.57          41.62
      1.19               -52.9          17.55          40.63          50.85         -5.319          9.348          41.15          13.17         -70.06          26.65          40.69
     1.211              -53.75           17.0          41.24          51.31         -5.743          9.056          45.66          11.64         -67.06          24.37          39.97
     1.232              -54.42          16.56          41.72          51.66         -6.074          8.828          49.19          10.45         -64.71          22.59          39.41
     1.253              -54.94          16.22           42.1          51.94         -6.334          8.649          51.96          9.515         -62.87          21.19          38.96
     1.275              -55.35          15.95           42.4          52.16         -6.541          8.506          54.17          8.771         -61.41          20.08          38.61
     1.296              -55.68          15.73          42.64          52.34         -6.706          8.392          55.93          8.174         -60.23          19.19          38.33
     1.317              -55.95          15.56          42.84          52.48         -6.841          8.299          57.36          7.691         -59.28          18.47           38.1
     1.338              -56.17          15.42           43.0           52.6         -6.951          8.224          58.54          7.295          -58.5          17.88          37.91
      1.36              -56.36           15.3          43.13           52.7         -7.041          8.161           59.5          6.968         -57.86          17.39          37.76
